:SAMPLES-PER-SECOND 30
:FULLY-SPECIFIED
:DEGREES
312
root  -7.2095 38.8783 8.86966 178.617 31.3897 177.965
RightUpLeg  -13.4822 -5.68435 -10.2447
RightLeg  25.9277 0.835495 0.216907
RightFoot  -5.28555 -0.980003 17.6948
RightToes  -1.74624e-010 0 -3.6325e-017
Spine  8.7569 0.0293596 -5.09795
Spine1  24.3249 -0.574288 0.250412
HEad  -15.4071 28.3004 -11.4092
LeftShoulder1  0.969864 -0.765811 -15.9377
LeftArm  16.4997 16.6045 -57.8905
LeftForeArm  95.6235 -79.3864 -102.049
LeftHand  -2.03745 -3.46739 26.5496
RightShoulder  0.494002 -0.802001 11.2038
RightArm  6.91947 -13.5332 59.9741
RightForeArm  149.842 63.4011 158.271
RightHand  -1.41893 5.20174 -15.7543
LeftUpLeg  -10.0061 0.148083 2.20761
LeftLeg  25.435 3.97696 2.40239
LeftFoot  -13.2135 -0.0198002 -5.98777
LeftToes  3.7286e-011 -1.5702e-010 -9.70233e-012
313
root  -7.37679 38.5368 8.80773 177.417 30.8418 177.951
RightUpLeg  -13.1356 -5.95174 -10.6984
RightLeg  28.2557 0.668151 0.158047
RightFoot  -7.7471 -0.597304 17.2558
RightToes  -1.74624e-010 0 -3.6325e-017
Spine  9.45892 -0.18429 -5.7987
Spine1  25.1477 -1.21573 0.786976
HEad  -16.0994 28.5403 -11.7336
LeftShoulder1  0.992891 -0.81 -16.2629
LeftArm  16.1464 12.8123 -57.0083
LeftForeArm  89.1564 -79.5522 -95.6816
LeftHand  -1.99996 -3.25899 26.6806
RightShoulder  0.500687 -0.780676 11.3178
RightArm  6.26368 -11.7007 60.149
RightForeArm  149.301 64.3037 157.384
RightHand  -1.40608 5.06747 -15.8073
LeftUpLeg  -9.84514 0.314082 1.96137
LeftLeg  27.677 3.49781 2.33472
LeftFoot  -15.6625 -0.110812 -5.3629
LeftToes  3.7286e-011 -1.5702e-010 -9.70233e-012
314
root  -7.51109 38.2954 8.77539 176.582 30.1293 177.724
RightUpLeg  -13.3142 -6.31148 -11.2989
RightLeg  30.4951 0.45765 0.0561815
RightFoot  -8.89684 -0.432957 17.316
RightToes  -1.74624e-010 0 -3.6325e-017
Spine  9.87101 -0.261498 -6.66979
Spine1  25.9866 -1.75313 1.50336
HEad  -16.5961 28.4033 -11.7263
LeftShoulder1  1.05962 -1.13562 -16.0825
LeftArm  15.1046 8.57313 -56.5939
LeftForeArm  79.0897 -79.597 -84.8868
LeftHand  -1.96283 -3.06925 26.7667
RightShoulder  0.522804 -0.708412 11.6672
RightArm  5.6813 -10.466 60.4662
RightForeArm  149.3 65.4117 156.295
RightHand  -1.38311 4.90996 -15.7846
LeftUpLeg  -10.2681 0.426737 1.65745
LeftLeg  29.8021 2.45293 1.8772
LeftFoot  -16.7836 -0.169428 -5.68104
LeftToes  3.7286e-011 -1.5702e-010 -9.70233e-012
315
root  -7.58488 38.2303 8.73703 176.439 29.6884 177.334
RightUpLeg  -14.282 -6.67843 -11.8967
RightLeg  32.327 0.520859 0.111791
RightFoot  -8.33018 -0.520403 17.5
RightToes  -1.74624e-010 0 -3.6325e-017
Spine  9.82828 -0.268231 -7.28999
Spine1  26.2296 -1.88399 1.604
HEad  -16.4062 27.9567 -11.3301
LeftShoulder1  1.07493 -1.38264 -15.1543
LeftArm  13.6837 5.51979 -56.8039
LeftForeArm  72.9539 -79.4498 -78.1052
LeftHand  -1.97123 -3.02261 27.0176
RightShoulder  0.559205 -0.561545 12.0025
RightArm  5.53232 -10.6256 60.9004
RightForeArm  150.468 65.9594 155.852
RightHand  -1.40689 4.99758 -15.9171
LeftUpLeg  -10.6745 0.654373 1.1826
LeftLeg  30.3771 1.84385 1.52861
LeftFoot  -16.7885 -0.173363 -5.7527
LeftToes  3.7286e-011 -1.5702e-010 -9.70233e-012
316
root  -7.59013 38.3406 8.67809 176.826 29.5846 177.105
RightUpLeg  -15.2455 -7.04914 -12.0904
RightLeg  32.9719 0.22958 -0.085606
RightFoot  -6.67492 -0.763148 17.4841
RightToes  -1.74624e-010 0 -3.6325e-017
Spine  9.43173 -0.266964 -7.62689
Spine1  26.0387 -1.80421 1.34051
HEad  -15.7626 27.4206 -10.9601
LeftShoulder1  1.00085 -1.23048 -14.2151
LeftArm  12.4302 4.1363 -56.8872
LeftForeArm  75.5327 -79.5072 -81.7061
LeftHand  -2.01638 -3.04215 27.5484
RightShoulder  0.584329 -0.441473 12.0823
RightArm  6.0795 -11.7204 61.1874
RightForeArm  152.074 65.6458 156.357
RightHand  -1.47222 5.33856 -16.1286
LeftUpLeg  -10.5425 0.479883 0.816667
LeftLeg  29.1428 2.15301 1.65289
LeftFoot  -16.2839 -0.134579 -5.37145
LeftToes  3.7286e-011 -1.5702e-010 -9.70233e-012
